<svg width="30" height="30" viewBox="0 0 30 30" fill="none" xmlns="http://www.w3.org/2000/svg">
<g clip-path="url(#clip0_13_2)">
<rect width="30" height="30" fill="#11121C"/>
<rect x="24.993" y="19.6565" width="3.41412" height="3.41412" fill="#7DF081"/>
<rect x="21.5788" y="16.2424" width="3.41412" height="3.41412" fill="#71E794"/>
<rect x="18.1647" y="19.6565" width="3.41412" height="3.41412" fill="#67D9AB"/>
<rect x="14.7506" y="16.2424" width="3.41412" height="3.41412" fill="#62D0B5"/>
<rect x="4.50824" y="16.2424" width="3.41412" height="3.41412" fill="#4E7FD9"/>
<rect x="7.92236" y="12.8282" width="3.41412" height="3.41412" fill="#85F279"/>
<rect x="1.09412" y="12.8282" width="3.41412" height="3.41412" fill="#6DE19F"/>
<rect x="7.92236" y="9.41411" width="3.41412" height="3.41412" fill="#71E794"/>
<rect x="1.09412" y="9.41411" width="3.41412" height="3.41412" fill="#67D9AB"/>
<rect x="7.92236" y="6" width="3.41412" height="3.41412" fill="#5B5EC7"/>
<rect x="1.09412" y="6" width="3.41412" height="3.41412" fill="#7DF081"/>
<rect x="4.50824" y="19.6565" width="3.41412" height="3.41412" fill="#62D0B5"/>
<rect x="14.7506" y="12.8282" width="3.41412" height="3.41412" fill="#53AFD0"/>
<rect x="14.7506" y="9.41411" width="3.41412" height="3.41412" fill="#71E794"/>
<rect x="18.1647" y="6" width="3.41412" height="3.41412" fill="#4C8ADB"/>
<rect x="21.5788" y="6" width="3.41412" height="3.41412" fill="#62D0B5"/>
<rect x="24.993" y="9.41411" width="3.41412" height="3.41412" fill="#4E7FD9"/>
<rect x="24.993" y="12.8282" width="3.41412" height="3.41412" fill="#53AFD0"/>
</g>
<defs>
<clipPath id="clip0_13_2">
<rect width="30" height="30" fill="white"/>
</clipPath>
</defs>
</svg>
