<svg width="179" height="32" viewBox="0 0 179 32" fill="none" xmlns="http://www.w3.org/2000/svg">
<g clip-path="url(#clip0_1_3)">
<g filter="url(#filter0_d_1_3)">
<path d="M34.375 17.75H31.25V8.375H34.375V17.75ZM37.5 17.75V8.375H40.625V17.75H37.5ZM37.5 24H34.375V17.75H37.5V24ZM46.875 11.5V8.375H53.125V11.5H46.875ZM46.875 24H43.75V11.5H46.875V14.625H53.125V11.5H56.25V24H53.125V17.75H46.875V24ZM71.875 20.875V24H59.375V8.375H71.875V11.5H62.5V14.625H68.75V17.75H62.5V20.875H71.875ZM93.75 20.875V24H81.25V8.375H93.75V11.5H84.375V14.625H90.625V17.75H84.375V20.875H93.75ZM96.875 14.625V11.5H100V14.625H96.875ZM103.125 14.625V11.5H106.25V14.625H103.125ZM103.125 20.875H100V14.625H103.125V20.875ZM100 20.875V24H96.875V20.875H100ZM103.125 24V20.875H106.25V24H103.125ZM115.625 20.875V24H112.5V27.125H109.375V11.5H115.625V14.625H112.5V20.875H115.625ZM118.75 20.875H115.625V14.625H118.75V20.875ZM125 24H121.875V8.375H125V24ZM131.25 24V20.875H128.125V14.625H131.25V20.875H134.375V14.625H131.25V11.5H137.5V24H131.25ZM140.625 8.375V5.25H143.75V8.375H140.625ZM143.75 24H140.625V11.5H143.75V24ZM150 24H146.875V11.5H153.125V14.625H150V24ZM156.25 24H153.125V14.625H156.25V24ZM162.5 20.875H159.375V14.625H162.5V11.5H165.625V14.625H168.75V17.75H162.5V20.875ZM162.5 24V20.875H168.75V24H162.5ZM175 24H171.875V11.5H178.125V14.625H175V24Z" fill="white"/>
</g>
<rect x="22" y="21" width="3" height="3" fill="#7DF081"/>
<rect x="19" y="18" width="3" height="3" fill="#71E794"/>
<rect x="16" y="21" width="3" height="3" fill="#67D9AB"/>
<rect x="13" y="18" width="3" height="3" fill="#62D0B5"/>
<rect x="4" y="18" width="3" height="3" fill="#4E7FD9"/>
<rect x="7" y="15" width="3" height="3" fill="#85F279"/>
<rect x="1" y="15" width="3" height="3" fill="#6DE19F"/>
<rect x="7" y="12" width="3" height="3" fill="#71E794"/>
<rect x="1" y="12" width="3" height="3" fill="#67D9AB"/>
<rect x="7" y="9" width="3" height="3" fill="#5B5EC7"/>
<rect x="1" y="9" width="3" height="3" fill="#7DF081"/>
<rect x="4" y="21" width="3" height="3" fill="#62D0B5"/>
<rect x="13" y="15" width="3" height="3" fill="#53AFD0"/>
<rect x="13" y="12" width="3" height="3" fill="#71E794"/>
<rect x="16" y="9" width="3" height="3" fill="#4C8ADB"/>
<rect x="19" y="9" width="3" height="3" fill="#62D0B5"/>
<rect x="22" y="12" width="3" height="3" fill="#4E7FD9"/>
<rect x="22" y="15" width="3" height="3" fill="#53AFD0"/>
</g>
<defs>
<filter id="filter0_d_1_3" x="27.25" y="5.25" width="154.875" height="29.875" filterUnits="userSpaceOnUse" color-interpolation-filters="sRGB">
<feFlood flood-opacity="0" result="BackgroundImageFix"/>
<feColorMatrix in="SourceAlpha" type="matrix" values="0 0 0 0 0 0 0 0 0 0 0 0 0 0 0 0 0 0 127 0" result="hardAlpha"/>
<feOffset dy="4"/>
<feGaussianBlur stdDeviation="2"/>
<feComposite in2="hardAlpha" operator="out"/>
<feColorMatrix type="matrix" values="0 0 0 0 0 0 0 0 0 0 0 0 0 0 0 0 0 0 0.25 0"/>
<feBlend mode="normal" in2="BackgroundImageFix" result="effect1_dropShadow_1_3"/>
<feBlend mode="normal" in="SourceGraphic" in2="effect1_dropShadow_1_3" result="shape"/>
</filter>
<clipPath id="clip0_1_3">
<rect width="179" height="32" fill="white"/>
</clipPath>
</defs>
</svg>
