<svg width="30" height="30" viewBox="0 0 30 30" fill="none" xmlns="http://www.w3.org/2000/svg">
<g clip-path="url(#clip0_13_23)">
<path d="M30 0H0V30H30V0Z" stroke="black" stroke-width="0.2"/>
<path d="M4.28571 0H0V4.28571H4.28571V0Z" fill="#52F667"/>
<path d="M4.28571 4.28571H0V8.57143H4.28571V4.28571Z" fill="#52F667"/>
<path d="M4.28571 8.57143H0V12.8571H4.28571V8.57143Z" fill="#52F667"/>
<path d="M4.28571 12.8571H0V17.1429H4.28571V12.8571Z" fill="#2AEB8B"/>
<path d="M4.28571 17.1429H0V21.4286H4.28571V17.1429Z" fill="#52F667"/>
<path d="M4.28571 21.4286H0V25.7143H4.28571V21.4286Z" fill="#52F667"/>
<path d="M4.28571 25.7143H0V30H4.28571V25.7143Z" fill="#52F667"/>
<path d="M8.57142 0H4.28571V4.28571H8.57142V0Z" fill="#52F667"/>
<path d="M8.57142 4.28571H4.28571V8.57143H8.57142V4.28571Z" fill="#52F667"/>
<path d="M8.57142 8.57143H4.28571V12.8571H8.57142V8.57143Z" fill="#6351C4"/>
<path d="M8.57142 12.8571H4.28571V17.1429H8.57142V12.8571Z" fill="#42F471"/>
<path d="M8.57142 17.1429H4.28571V21.4286H8.57142V17.1429Z" fill="#6948B7"/>
<path d="M8.57142 21.4286H4.28571V25.7143H8.57142V21.4286Z" fill="#6948B7"/>
<path d="M8.57142 25.7143H4.28571V30H8.57142V25.7143Z" fill="#52F667"/>
<path d="M12.8572 0H8.57144V4.28571H12.8572V0Z" fill="#52F667"/>
<path d="M12.8572 4.28571H8.57144V8.57143H12.8572V4.28571Z" fill="#1CDDA7"/>
<path d="M12.8572 8.57143H8.57144V12.8571H12.8572V8.57143Z" fill="#378AE1"/>
<path d="M12.8572 12.8571H8.57144V17.1429H12.8572V12.8571Z" fill="#1CBDCB"/>
<path d="M12.8572 17.1429H8.57144V21.4286H12.8572V17.1429Z" fill="#2E97E0"/>
<path d="M12.8572 21.4286H8.57144V25.7143H12.8572V21.4286Z" fill="#5C5BCE"/>
<path d="M12.8572 25.7143H8.57144V30H12.8572V25.7143Z" fill="#52F667"/>
<path d="M17.1429 0H12.8571V4.28571H17.1429V0Z" fill="#1CDDA7"/>
<path d="M17.1429 4.28571H12.8571V8.57143H17.1429V4.28571Z" fill="#5C5BCE"/>
<path d="M17.1429 8.57143H12.8571V12.8571H17.1429V8.57143Z" fill="#19C9C0"/>
<path d="M17.1429 12.8571H12.8571V17.1429H17.1429V12.8571Z" fill="#20B1D4"/>
<path d="M17.1429 17.1429H12.8571V21.4286H17.1429V17.1429Z" fill="#35F07D"/>
<path d="M17.1429 21.4286H12.8571V25.7143H17.1429V21.4286Z" fill="#417EE0"/>
<path d="M17.1429 25.7143H12.8571V30H17.1429V25.7143Z" fill="#52F667"/>
<path d="M21.4286 0H17.1429V4.28571H21.4286V0Z" fill="#19D3B4"/>
<path d="M21.4286 4.28571H17.1429V8.57143H21.4286V4.28571Z" fill="#5C5BCE"/>
<path d="M21.4286 8.57143H17.1429V12.8571H21.4286V8.57143Z" fill="#6351C4"/>
<path d="M21.4286 12.8571H17.1429V17.1429H21.4286V12.8571Z" fill="#1CDDA7"/>
<path d="M21.4286 17.1429H17.1429V21.4286H21.4286V17.1429Z" fill="#417EE0"/>
<path d="M21.4286 21.4286H17.1429V25.7143H21.4286V21.4286Z" fill="#20B1D4"/>
<path d="M21.4286 25.7143H17.1429V30H21.4286V25.7143Z" fill="#52F667"/>
<path d="M25.7143 0H21.4286V4.28571H25.7143V0Z" fill="#52F667"/>
<path d="M25.7143 4.28571H21.4286V8.57143H25.7143V4.28571Z" fill="#4A71DD"/>
<path d="M25.7143 8.57143H21.4286V12.8571H25.7143V8.57143Z" fill="#35F07D"/>
<path d="M25.7143 12.8571H21.4286V17.1429H25.7143V12.8571Z" fill="#22E599"/>
<path d="M25.7143 17.1429H21.4286V21.4286H25.7143V17.1429Z" fill="#20B1D4"/>
<path d="M25.7143 21.4286H21.4286V25.7143H25.7143V21.4286Z" fill="#52F667"/>
<path d="M25.7143 25.7143H21.4286V30H25.7143V25.7143Z" fill="#52F667"/>
<path d="M30 0H25.7143V4.28571H30V0Z" fill="#52F667"/>
<path d="M30 4.28571H25.7143V8.57143H30V4.28571Z" fill="#52F667"/>
<path d="M30 8.57143H25.7143V12.8571H30V8.57143Z" fill="#52F667"/>
<path d="M30 12.8571H25.7143V17.1429H30V12.8571Z" fill="#52F667"/>
<path d="M30 17.1429H25.7143V21.4286H30V17.1429Z" fill="#52F667"/>
<path d="M30 21.4286H25.7143V25.7143H30V21.4286Z" fill="#52F667"/>
<path d="M30 25.7143H25.7143V30H30V25.7143Z" fill="#52F667"/>
</g>
<defs>
<clipPath id="clip0_13_23">
<rect width="30" height="30" fill="white"/>
</clipPath>
</defs>
</svg>
